<?xml version="1.0" encoding="UTF-8"?>
<svg id="Layer_1" data-name="Layer 1" xmlns="http://www.w3.org/2000/svg" viewBox="0 0 7315.24 1000">
  <defs>
    <style>
      .cls-1 {
        fill: #fc8959;
      }

      .cls-2 {
        fill: #040302;
      }

      .cls-3 {
        fill: #ef8e6b;
      }

      .cls-4 {
        fill: #f2db4c;
      }
    </style>
  </defs>
  <g>
    <path class="cls-2" d="M1121.91,374.06c-33.52,50.42-74.76,94.85-111.02,143.13-28.08,37.39-61.88,66.4-108.78,78.32,7.43,22.46,14.87,44.22,21.83,66.13,21.04,66.23,7.07,124.18-42.25,173.11-40.7,40.39-81.85,80.33-122.99,120.27-41.07,39.87-89.66,53.07-144,34.96-51.96-17.31-82.59-55.18-93.28-108.96-13.12-66.01-26.22-132.03-39.35-198.05-.76-3.82-1.76-7.59-4.52-11.6-1.07,3.66-2.3,7.28-3.2,10.99-9.2,37.69-18.32,75.41-27.55,113.1-.97,3.96-1.93,8.08-3.81,11.64-3.99,7.54-10.71,10.23-18.85,8-7.64-2.1-12.04-7.51-11.94-15.53,.05-4.4,1.19-8.85,2.24-13.18,9.89-40.95,19.86-81.89,30-123.63-5.69,.64-7.02,5.03-9.27,7.84-42.28,52.85-84.39,105.83-126.59,158.74-34.18,42.86-78.79,62.45-132.91,53.96-56.59-8.87-93.69-42.91-111.87-97.18-18.34-54.72-36.83-109.41-54.41-164.38-20.88-65.27-6.7-122.6,41.47-171.34,14.66-14.83,29.68-29.3,44.8-43.66,4.12-3.91,5.71-6.03,.56-10.94-28.15-26.84-44.69-59.98-52.15-98.01-10.46-53.27-21.42-106.44-31.83-159.71-2.24-11.45-3.05-23.18-4.52-34.79,3-12.33,5.99-24.66,8.99-36.99,3.57-.19,3.36-3.62,4.53-5.65C56.35-.65,127.04-16.48,185.16,24.11c26.87,18.77,52.19,39.49,76.48,61.47,96.16,87.03,169.91,190.48,225.41,307.34,1.63,3.44,.86,10.18,9.06,8.01,7.25-1.92,9.72-4.63,9.61-12.64-.81-61.88-13.06-121.17-38.41-177.68-13.34-29.74-29.64-57.68-50.5-82.87-7.33-8.86-6.71-18.39,.81-24.81,7.42-6.34,17.05-5.18,24.73,3.11,2.28,2.45,4.35,5.11,6.4,7.76,45.64,59.18,72.11,126.46,84.22,199.77,1.85,11.18,3.15,22.44,4.99,35.79,2.32-3.32,3.54-4.98,4.67-6.69,16.4-24.92,34.69-48.34,55.51-69.73,39.13-40.23,83.21-73.5,135.24-95.41,11.15-4.69,20.64-1.22,24.44,8.04,3.87,9.43-.42,17.9-11.63,22.99-89.01,40.46-152.81,106.84-198.58,192.12-4.1,7.63,.46,9.39,3.86,13.46,5.1,6.1,7.8,.26,10.71-1.97,54.35-41.68,112.17-77.78,173.78-107.73,85.01-41.33,174.12-69.63,267.83-82.74,66.86-9.35,125.37,41.89,125.74,109.35,.01,2.68-2.48,5.8,.82,8.19-2.82,11.61-5.64,23.21-8.46,34.82Zm-339.56,36.29c53.02-14.22,106.03-28.48,159.08-42.63,14.44-3.85,20.24-.65,25.52,13.51-.04,12.67-8.48,16.85-19.03,19.69-120.76,32.53-241.48,65.2-362.19,97.89-3.37,.91-7.33,.6-10.65,4.73,21.86,5.31,43.03,10.53,64.25,15.51,2.42,.57,5.18-.05,7.74-.42,117.79-17.05,235.58-34.17,353.39-51.08,5.63-.81,9.45-2.95,12.92-7.34,20.98-26.57,42.22-52.93,63.29-79.43,4.08-5.14,8.72-10.04,10.48-17.54-20.07,5.4-39.53,10.29-58.77,15.94-10.87,3.19-18.93,.75-24.81-8.9-1.36-14.81,1.77-19.7,15.79-23.57,22.27-6.15,44.49-12.49,66.94-17.9,8.2-1.98,9.77-5.37,8.22-13.18-7.81-39.34-44.96-65.95-86.44-60.49-19.91,2.62-39.5,7.65-59.4,10.33-23.91,3.22-43.38,12.88-58.86,31.93-10.29,12.67-22.88,23.45-34.36,35.17-24.75,25.26-49.44,50.57-74.16,75.86-.51,.6-1.02,1.19-1.53,1.79,.87,.04,1.73,.08,2.6,.12ZM134.94,698.83c1.25,14.22-1.42,18.71-14.48,23.81-10.41,4.06-20.8,8.17-31.36,11.81-5.07,1.75-5.99,4.06-4.16,9.05,4.25,11.52,7.77,23.3,11.81,34.9,13.96,40.11,41.85,64.93,83.64,71.69,40.39,6.54,74.29-7.46,99.92-39.29,49.89-61.97,99.16-124.46,149.02-186.45,4.71-5.86,4.3-10.44,.97-15.82-4.22-6.82-8.7-.71-12.27,.64-72.46,27.37-144.83,54.95-217.1,82.82-10.89,4.2-19.5,3.39-26.36-6.57-2.6-14.73-.1-19.33,13.87-24.7,28.17-10.83,56.38-21.56,84.57-32.33,50.12-19.15,100.18-38.46,150.44-57.26,7.08-2.65,9.78-7.65,8.94-13.46-.96-6.7-7.52-2.6-11.03-2.53-79.61,1.53-159.21,3.54-238.82,5.18-5.65,.12-9.8,1.62-14,5.27-27.57,23.95-55.43,47.57-82.99,71.54-9.2,8-23.8,14.09-25.82,24.87-1.99,10.64,6.39,23.09,9.69,34.9,1.74,6.23,3.7,8.65,10.58,5.38,9.05-4.31,18.7-7.38,28.13-10.89,13.84-5.17,17.66-4.07,26.8,7.47Zm496.26,261.58c37.63,8.25,69.46,.88,96.97-22.98,10.39-9.01,19.55-19.43,29.87-28.53,5.59-4.93,5.2-7.82,.36-13.21-78.35-87.32-156.43-174.89-234.74-262.24-1.98-2.21-3.3-8.21-8.16-4.88-4.19,2.87-9.25,4.9-7.63,12.84,16.4,80.52,31.35,161.35,48.66,241.67,8.83,40.98,36.75,66.05,74.67,77.34ZM41.65,107.81c1.54,10.71,2.27,18.05,3.69,25.26,6.1,31.05,12.6,62.02,18.49,93.11,1.48,7.81,4.75,13.18,11.35,17.88,88.9,63.15,178.37,125.53,265.91,190.53,28.51,21.17,60.55,25.79,93.55,32.52C304.51,348.14,174.39,229.17,41.65,107.81Zm492.77,479.79c-2.67,5.51,1.39,8.69,4.63,12.31,74.97,83.89,149.9,167.81,224.88,251.7,7.93,8.87,15.7,24.06,24.25,24.58,9.87,.6,17.39-15.25,26.79-22.97,5.47-4.49,6.04-8.62,3.28-15.27-15.84-38.21-31.64-76.45-46.29-115.12-5.21-13.74-13.14-22.51-26.15-29.46-66.62-35.58-132.69-72.18-199.11-108.12-3.56-1.93-10.39-10.64-12.28,2.34Zm-241.33-295.44c1.88-2.82,.99-4.54,.44-6.28-17.84-56.89-35.68-113.77-53.5-170.67-1.02-3.24-2.35-6.1-5.04-8.45-24.37-21.38-49.06-42.45-76.48-59.82-32.74-20.73-76.06-12.68-99.75,17.1-5.03,6.32-4.7,9.85,1.44,15.43,77.71,70.64,155.13,141.59,232.88,212.69Zm-54.38,233.19c-16.71-23.9-32.73-46.23-48.06-69.02-6.03-8.97-12.46-15.61-23.7-18.2-10.76-2.48-21.24-6.96-30.74-12.97-5.19-3.28-8.89-2.96-13.45,1.66-17.25,17.48-34.96,34.51-52.48,51.73-11.29,11.1-19.67,24.16-26.13,38.55-5.56,12.38-5.39,12.71,7.75,12.45,30.86-.63,61.72-1.2,92.58-1.89,30.78-.69,61.55-1.5,94.23-2.31Zm484.29,117.67c57.33,31.33,112.79,61.58,168.17,92,6.24,3.43,7.57,.53,8.05-4.87,1.38-15.31,1.11-30.65-3.4-45.35-7.97-25.96-16.92-51.62-25.16-77.5-1.52-4.78-3.9-6.41-8.77-6.19-14.95,.66-29.72-1.11-44.33-4.15-3.03-.63-5.77-.61-8.61,.89-27.95,14.75-55.95,29.42-85.94,45.18Zm-262.67-198.01c1.43-9.45,6.68-15.12,2.86-23.51-41.92-91.99-95.72-176.19-163.84-251.05-1.82-2-3.22-5.4-7.65-3.84,.98,3.49,1.86,6.99,2.94,10.44,13.26,42.31,27.72,84.29,39.41,127.02,6.96,25.46,19.21,45.31,39.54,62.26,29.39,24.51,56.83,51.34,86.74,78.68Zm380.98-145.98c-6.83-1.45-10.63,1.37-14.65,2.89-90.71,34.2-173.52,82.31-250.12,141.54-8.89,6.87-13.18,14.25-11.96,25.13,.84,.09,1.63,.4,2.29,.23,46.72-12.56,93.43-25.16,140.15-37.71,2.95-.79,5.51-2.03,7.68-4.23,41.86-42.3,83.75-84.57,126.61-127.84Zm-107.62,240.98c.04,.68,.08,1.36,.12,2.04,30.44,7.4,60.68,15.82,91.38,21.97,57.95,11.62,106.6-5.53,145.16-50.51,1.7-1.99,4.92-3.64,3.38-8.19-80.01,11.56-160.02,23.13-240.04,34.69ZM77.19,286.48c.29,4.18,.22,5.95,.56,7.62,9.46,46.31,34.66,81.43,76.85,102.7,37.94,19.13,80.8,22.05,121.99,32.21-65.77-47.01-131.54-94.02-199.4-142.52Zm153.05,167.91c16.53,23.69,31.4,44.97,46.23,66.28,1.83,2.63,3.98,4.11,7.4,4.02,50.61-1.31,101.22-2.68,151.83-3.63,7.34-.14,7.05-4.98,8.36-9.45,1.7-5.77-2.72-5.9-6.2-6.74-68.14-16.58-136.28-33.14-207.62-50.47Zm530.94,130.57c-1.59-1.29-2.06-1.97-2.65-2.11-67.81-16.53-135.62-33.02-203.44-49.53-3.77-.92-7.14-2.02-8.46,3.59-1.29,5.47-1.86,9.1,4.62,12.56,43.68,23.33,87.08,47.19,130.43,71.13,4.13,2.28,7.17,2.57,11.28,.37,22.36-11.97,44.85-23.71,68.21-36.01Zm86.34,235.94c14.72-13.45,27.1-26.44,36.33-42.45,3.77-6.54,1.9-8.57-3.72-11.52-19.05-10.01-37.88-20.47-56.77-30.8-3.49-1.91-6.74-4.41-11.55-3.42,11.75,29.01,23.41,57.8,35.71,88.19ZM117.16,563.92c-1.52-.76-2.5-1.69-3.47-1.68-24.91,.37-49.83,.92-74.74,1.25-5.52,.07-5.3,3.06-5.25,7.27,.21,16.64,4.82,32.25,9.8,47.91,2.34,7.38,4.53,6.49,9.39,2.18,14.77-13.1,30-25.68,44.83-38.72,6.57-5.78,14.22-10.53,19.44-18.2Z"/>
    <path class="cls-4" d="M174.57,685.41c6.85,9.97,15.47,10.77,26.36,6.57,72.26-27.87,144.64-55.45,217.1-82.82,3.57-1.35,8.05-7.45,12.27-.64,3.33,5.38,3.74,9.96-.97,15.82-49.87,62-99.13,124.48-149.02,186.45-25.63,31.84-59.53,45.83-99.92,39.29-41.79-6.76-69.69-31.58-83.64-71.69-4.04-11.6-7.56-23.38-11.81-34.9-1.84-4.99-.92-7.3,4.16-9.05,10.56-3.64,20.96-7.75,31.36-11.81,13.07-5.1,15.73-9.59,14.48-23.81,13.31-4.19,25.79-10.82,39.64-13.42Z"/>
    <path class="cls-4" d="M631.2,960.41c-37.92-11.29-65.84-36.36-74.67-77.34-17.31-80.32-32.26-161.15-48.66-241.67-1.62-7.95,3.44-9.98,7.63-12.84,4.86-3.33,6.18,2.67,8.16,4.88,78.31,87.36,156.39,174.92,234.74,262.24,4.84,5.39,5.23,8.28-.36,13.21-10.32,9.1-19.48,19.53-29.87,28.53-27.52,23.86-59.35,31.23-96.97,22.98Z"/>
    <path class="cls-4" d="M1003.55,370.28c5.88,9.65,13.94,12.09,24.81,8.9,19.24-5.65,38.7-10.55,58.77-15.94-1.76,7.49-6.39,12.4-10.48,17.54-21.06,26.5-42.3,52.87-63.29,79.43-3.47,4.39-7.29,6.53-12.92,7.34-117.81,16.91-235.6,34.03-353.39,51.08-2.56,.37-5.32,.99-7.74,.42-21.23-4.98-42.39-10.2-64.25-15.51,3.32-4.14,7.29-3.82,10.65-4.73,120.71-32.69,241.43-65.36,362.19-97.89,10.55-2.84,18.99-7.02,19.04-19.69,11.5-6.01,24.29-7.69,36.61-10.94Z"/>
    <path class="cls-4" d="M41.65,107.81c132.74,121.36,262.86,240.33,392.99,359.3-33-6.73-65.04-11.35-93.55-32.52-87.53-64.99-177.01-127.38-265.91-190.53-6.61-4.69-9.88-10.07-11.35-17.88-5.88-31.09-12.39-62.06-18.49-93.11-1.42-7.21-2.15-14.55-3.69-25.26Z"/>
    <path class="cls-4" d="M174.57,685.41c-13.84,2.61-26.33,9.24-39.64,13.42-9.14-11.55-12.96-12.64-26.8-7.47-9.42,3.52-19.07,6.58-28.13,10.89-6.88,3.27-8.84,.85-10.58-5.38-3.3-11.81-11.68-24.26-9.69-34.9,2.02-10.78,16.62-16.87,25.82-24.87,27.56-23.97,55.41-47.59,82.99-71.54,4.2-3.65,8.35-5.15,14-5.27,79.61-1.64,159.21-3.65,238.82-5.18,3.51-.07,10.06-4.17,11.03,2.53,.84,5.81-1.86,10.82-8.94,13.46-50.25,18.8-100.31,38.11-150.44,57.26-28.19,10.77-56.4,21.5-84.57,32.33-13.97,5.37-16.47,9.97-13.87,24.7Z"/>
    <path class="cls-4" d="M534.42,587.6c1.89-12.98,8.72-4.27,12.28-2.34,66.43,35.94,132.5,72.54,199.11,108.12,13.01,6.95,20.95,15.71,26.15,29.46,14.65,38.67,30.45,76.91,46.29,115.12,2.76,6.65,2.19,10.77-3.28,15.27-9.41,7.72-16.93,23.57-26.79,22.97-8.55-.52-16.32-15.71-24.25-24.58-74.98-83.89-149.91-167.81-224.88-251.7-3.24-3.62-7.3-6.8-4.63-12.31Z"/>
    <path class="cls-3" d="M1003.55,370.28c-12.32,3.25-25.11,4.93-36.61,10.94-5.28-14.16-11.08-17.36-25.52-13.51-53.04,14.15-106.05,28.41-159.08,42.63-.31-.66-.67-1.29-1.06-1.9,24.72-25.29,49.41-50.6,74.16-75.86,11.48-11.71,24.07-22.5,34.36-35.17,15.48-19.06,34.95-28.71,58.86-31.93,19.9-2.68,39.49-7.71,59.4-10.33,41.48-5.46,78.64,21.14,86.44,60.49,1.55,7.81-.02,11.2-8.22,13.18-22.45,5.41-44.67,11.75-66.94,17.9-14.02,3.87-17.15,8.75-15.79,23.57Z"/>
    <path class="cls-3" d="M293.08,292.16C215.34,221.06,137.91,150.11,60.2,79.47c-6.14-5.58-6.47-9.11-1.44-15.43,23.69-29.78,67-37.84,99.75-17.1,27.42,17.36,52.11,38.43,76.48,59.82,2.69,2.36,4.02,5.21,5.04,8.45,17.82,56.9,35.66,113.78,53.5,170.67,.55,1.75,1.44,3.46-.44,6.28Z"/>
    <path class="cls-3" d="M238.71,525.36c-32.68,.81-63.45,1.62-94.23,2.31-30.86,.69-61.72,1.26-92.58,1.89-13.14,.27-13.31-.07-7.75-12.45,6.46-14.39,14.84-27.45,26.13-38.55,17.52-17.22,35.23-34.25,52.48-51.73,4.57-4.63,8.27-4.95,13.45-1.66,9.5,6.01,19.97,10.49,30.74,12.97,11.24,2.59,17.67,9.23,23.7,18.2,15.33,22.79,31.34,45.12,48.06,69.02Z"/>
    <path class="cls-3" d="M722.99,643.03c30-15.75,57.99-30.43,85.94-45.18,2.84-1.5,5.57-1.52,8.61-.89,14.62,3.04,29.39,4.81,44.33,4.15,4.87-.22,7.25,1.41,8.77,6.19,8.25,25.88,17.19,51.54,25.16,77.5,4.52,14.7,4.78,30.04,3.4,45.35-.49,5.39-1.81,8.3-8.05,4.87-55.38-30.41-110.84-60.66-168.17-92Z"/>
    <path class="cls-3" d="M460.32,445.02c-29.9-27.33-57.35-54.17-86.74-78.68-20.33-16.95-32.58-36.8-39.54-62.26-11.69-42.74-26.14-84.72-39.41-127.02-1.08-3.45-1.97-6.95-2.94-10.44,4.42-1.56,5.82,1.84,7.65,3.84,68.13,74.86,121.92,159.05,163.84,251.05,3.83,8.39-1.43,14.07-2.86,23.51Z"/>
    <path class="cls-3" d="M841.3,299.04c-42.86,43.27-84.75,85.54-126.61,127.84-2.17,2.2-4.73,3.44-7.68,4.23-46.72,12.55-93.43,25.16-140.15,37.71-.66,.18-1.45-.13-2.29-.23-1.22-10.88,3.07-18.26,11.96-25.13,76.6-59.23,159.41-107.34,250.12-141.54,4.02-1.52,7.82-4.33,14.65-2.89Z"/>
    <path class="cls-4" d="M733.68,540.02c80.01-11.56,160.02-23.13,240.04-34.69,1.54,4.55-1.68,6.21-3.38,8.19-38.56,44.98-87.21,62.12-145.16,50.51-30.69-6.15-60.93-14.58-91.38-21.97-.04-.68-.08-1.36-.12-2.04Z"/>
    <path class="cls-4" d="M77.19,286.48c67.86,48.51,133.63,95.51,199.4,142.52-41.19-10.16-84.05-13.08-121.99-32.21-42.19-21.27-67.39-56.38-76.85-102.7-.34-1.68-.27-3.44-.56-7.62Z"/>
    <path class="cls-3" d="M230.23,454.39c71.33,17.33,139.48,33.89,207.62,50.47,3.49,.85,7.9,.97,6.2,6.74-1.31,4.47-1.03,9.31-8.36,9.45-50.62,.95-101.22,2.32-151.83,3.63-3.42,.09-5.57-1.39-7.4-4.02-14.83-21.31-29.7-42.59-46.23-66.28Z"/>
    <path class="cls-3" d="M761.17,584.96c-23.36,12.3-45.85,24.04-68.21,36.01-4.1,2.2-7.14,1.91-11.28-.37-43.35-23.95-86.75-47.8-130.43-71.13-6.49-3.46-5.91-7.09-4.62-12.56,1.32-5.6,4.69-4.5,8.46-3.59,67.81,16.51,135.63,33,203.44,49.53,.59,.14,1.06,.82,2.65,2.11Z"/>
    <path class="cls-4" d="M847.51,820.9c-12.31-30.38-23.96-59.18-35.71-88.19,4.81-.99,8.07,1.51,11.55,3.42,18.89,10.33,37.71,20.78,56.77,30.8,5.62,2.95,7.49,4.98,3.72,11.52-9.22,16.01-21.61,29.01-36.33,42.45Z"/>
    <path class="cls-4" d="M117.16,563.92c-5.23,7.67-12.87,12.42-19.44,18.2-14.83,13.04-30.06,25.62-44.83,38.72-4.86,4.31-7.05,5.2-9.39-2.18-4.97-15.66-9.59-31.27-9.8-47.91-.05-4.21-.27-7.19,5.25-7.27,24.92-.33,49.83-.87,74.74-1.25,.97-.01,1.95,.92,3.47,1.68Z"/>
    <path class="cls-1" d="M782.34,410.34c-.87-.04-1.73-.08-2.6-.12,.51-.6,1.02-1.19,1.53-1.79,.39,.61,.75,1.25,1.06,1.9Z"/>
  </g>
  <g>
    <path class="cls-3" d="M2250.92,228.43c45.59,46.94,68.4,115.01,68.4,204.18v437.54h-99.58V435.63c0-61.69-16.09-108.46-48.28-140.31-32.19-31.84-74.78-47.78-127.74-47.78-58.34,0-104.45,16.6-138.3,49.79-33.87,33.19-50.8,83.99-50.8,152.38v420.44h-99.58V435.63c0-62.36-15.26-109.29-45.77-140.82-30.52-31.51-72.26-47.27-125.23-47.27-59.01,0-105.79,16.77-140.31,50.29-34.54,33.54-51.8,84.16-51.8,151.88v420.44h-100.58V166.07h96.56v102.6c20.78-34.86,50.12-62.02,88.01-81.47,37.88-19.44,81.98-29.17,132.27-29.17s97.39,10.4,135.29,31.18c37.88,20.79,65.88,49.63,83.99,86.5,22.13-37.55,53.47-66.54,94.05-87,40.56-20.45,87-30.68,139.31-30.68,81.13,0,144.49,23.48,190.1,70.41Z"/>
    <path class="cls-3" d="M3043.51,239.99c54.31,54.66,81.47,132.94,81.47,234.86v395.29h-100.58v-194.13h-406.36v194.13h-98.57V474.86c0-101.92,27.16-180.2,81.47-234.86,54.31-54.65,127.74-81.98,220.28-81.98s167.98,27.33,222.29,81.98Zm-19.11,348.52v-122.71c0-71.74-17.95-126.06-53.81-162.95-35.88-36.87-85.67-55.32-149.37-55.32s-113.5,18.45-149.37,55.32c-35.88,36.89-53.81,91.2-53.81,162.95v122.71h406.36Z"/>
    <path class="cls-3" d="M3800.89,870.15l-151.88-216.25c-18.78,1.35-33.54,2.01-44.26,2.01h-174.01v214.24h-100.58V166.07h274.59c91.19,0,162.95,21.8,215.25,65.38,52.3,43.6,78.46,103.6,78.46,180.04,0,54.32-13.42,100.58-40.23,138.81-26.83,38.22-65.05,66.06-114.67,83.49l166.97,236.37h-109.64Zm-53.31-340.98c33.52-27.49,50.29-66.72,50.29-117.68s-16.77-90.02-50.29-117.18c-33.54-27.16-82.15-40.74-145.85-40.74h-170.99v316.84h170.99c63.7,0,112.31-13.74,145.85-41.24Z"/>
    <path class="cls-3" d="M4235.4,253.57V782.64h135.79v87.51h-372.16v-87.51h135.79V253.57h-135.79v-87.51h372.16v87.51h-135.79Z"/>
    <path class="cls-3" d="M5009.89,231.44c52.3,43.6,78.46,103.6,78.46,180.04s-26.15,136.46-78.46,180.05c-52.3,43.6-124.06,65.38-215.25,65.38h-174.01v213.24h-100.58V166.07h274.59c91.19,0,162.95,21.8,215.25,65.38Zm-72.42,297.22c33.52-27.16,50.29-66.21,50.29-117.18s-16.77-90.02-50.29-117.18c-33.54-27.16-82.15-40.74-145.85-40.74h-170.99v315.83h170.99c63.7,0,112.31-13.58,145.85-40.74Z"/>
    <path class="cls-3" d="M5371.98,831.43c-57-31.18-101.76-74.26-134.28-129.25-32.53-54.97-48.78-116.33-48.78-184.07s16.25-129.08,48.78-184.07c32.52-54.98,77.28-98.07,134.28-129.25,56.99-31.18,121.03-46.77,192.12-46.77s134.11,15.59,191.11,46.77c56.99,31.18,101.59,74.1,133.78,128.75,32.19,54.66,48.28,116.17,48.28,184.57s-16.09,129.93-48.28,184.57c-32.19,54.66-76.79,97.57-133.78,128.75-57,31.18-120.7,46.77-191.11,46.77s-135.13-15.59-192.12-46.77Zm331.42-77.95c41.24-23.46,73.76-55.82,97.57-97.06,23.79-41.24,35.71-87.33,35.71-138.3s-11.91-97.06-35.71-138.3c-23.81-41.24-56.33-73.58-97.57-97.06-41.24-23.46-87.68-35.2-139.31-35.2s-98.42,11.74-140.31,35.2c-41.92,23.48-74.78,55.82-98.57,97.06-23.81,41.24-35.71,87.35-35.71,138.3s11.9,97.06,35.71,138.3c23.79,41.24,56.66,73.6,98.57,97.06,41.9,23.48,88.67,35.2,140.31,35.2s98.07-11.72,139.31-35.2Z"/>
    <path class="cls-3" d="M6142.95,853.56c-49.29-16.42-88.01-37.72-116.17-63.87l37.22-78.46c26.81,24.14,61.18,43.75,103.1,58.84,41.9,15.09,84.99,22.63,129.25,22.63,58.34,0,101.92-9.89,130.76-29.67,28.82-19.77,43.25-46.1,43.25-78.96,0-24.14-7.89-43.75-23.64-58.84-15.76-15.09-35.2-26.65-58.34-34.7-23.13-8.05-55.82-17.1-98.07-27.16-52.98-12.73-95.73-25.48-128.24-38.22-32.53-12.73-60.35-32.34-83.48-58.84-23.13-26.48-34.7-62.19-34.7-107.12,0-37.55,9.89-71.41,29.67-101.59,19.77-30.17,49.79-54.31,90.02-72.42,40.23-18.11,90.18-27.16,149.87-27.16,41.57,0,82.48,5.37,122.71,16.09,40.23,10.73,74.76,26.15,103.6,46.27l-33.19,80.47c-29.52-18.77-61.03-33.02-94.55-42.75-33.54-9.71-66.38-14.58-98.57-14.58-57,0-99.75,10.4-128.24,31.18-28.51,20.79-42.75,47.62-42.75,80.47,0,24.14,8.05,43.75,24.14,58.84,16.09,15.09,36.04,26.83,59.85,35.2,23.79,8.39,56.15,17.27,97.06,26.65,52.96,12.75,95.55,25.49,127.74,38.22,32.19,12.75,59.85,32.19,82.98,58.34,23.13,26.15,34.7,61.36,34.7,105.61,0,36.89-10.06,70.58-30.18,101.09-20.12,30.52-50.64,54.66-91.53,72.42-40.91,17.78-91.2,26.65-150.88,26.65-52.98,0-104.1-8.2-153.39-24.64Z"/>
    <path class="cls-3" d="M7233.77,239.99c54.32,54.66,81.47,132.94,81.47,234.86v395.29h-100.58v-194.13h-406.36v194.13h-98.57V474.86c0-101.92,27.16-180.2,81.47-234.86,54.32-54.65,127.74-81.98,220.28-81.98s167.97,27.33,222.29,81.98Zm-19.11,348.52v-122.71c0-71.74-17.95-126.06-53.81-162.95-35.88-36.87-85.67-55.32-149.37-55.32s-113.5,18.45-149.37,55.32c-35.88,36.89-53.81,91.2-53.81,162.95v122.71h406.36Z"/>
  </g>
</svg>