<?xml version="1.0" encoding="UTF-8"?>
<svg id="Layer_1" data-name="Layer 1" xmlns="http://www.w3.org/2000/svg" viewBox="0 0 1000 1000">
  <defs>
    <style>
      .cls-1 {
        fill: #fc8959;
      }

      .cls-2 {
        fill: #040302;
      }

      .cls-3 {
        fill: #ef8e6b;
      }

      .cls-4 {
        fill: #f2db4c;
      }
    </style>
  </defs>
  <path class="cls-2" d="M991.64,389.03c-29.58,44.49-65.97,83.7-97.97,126.3-24.78,32.99-54.61,58.59-95.99,69.11,6.56,19.82,13.12,39.02,19.26,58.35,18.56,58.44,6.24,109.57-37.28,152.75-35.92,35.64-72.22,70.88-108.52,106.13-36.24,35.18-79.12,46.83-127.07,30.85-45.85-15.28-72.87-48.69-82.31-96.15-11.58-58.25-23.14-116.5-34.73-174.75-.67-3.37-1.55-6.7-3.99-10.24-.95,3.23-2.03,6.43-2.82,9.69-8.12,33.26-16.17,66.54-24.31,99.8-.86,3.5-1.7,7.13-3.36,10.27-3.52,6.65-9.45,9.03-16.63,7.06-6.74-1.85-10.62-6.63-10.54-13.7,.05-3.89,1.05-7.81,1.98-11.63,8.72-36.14,17.53-72.26,26.48-109.09-5.02,.57-6.2,4.44-8.18,6.92-37.31,46.63-74.47,93.38-111.7,140.07-30.16,37.82-69.52,55.1-117.28,47.61-49.94-7.83-82.67-37.87-98.72-85.75-16.18-48.29-32.49-96.54-48.01-145.04-18.43-57.6-5.91-108.18,36.59-151.18,12.93-13.08,26.19-25.86,39.53-38.53,3.64-3.45,5.03-5.32,.49-9.65-24.84-23.68-39.43-52.93-46.02-86.48-9.23-47-18.9-93.92-28.09-140.93-1.97-10.11-2.69-20.46-3.98-30.7,2.64-10.88,5.29-21.76,7.93-32.64,3.15-.17,2.97-3.19,3.99-4.98,31.02-54.1,93.4-68.06,144.68-32.25,23.71,16.56,46.05,34.84,67.48,54.24,84.85,76.79,149.92,168.07,198.9,271.19,1.44,3.03,.76,8.98,7.99,7.07,6.4-1.7,8.57-4.08,8.48-11.15-.72-54.6-11.52-106.92-33.89-156.78-11.77-26.24-26.15-50.89-44.56-73.13-6.47-7.82-5.92-16.22,.71-21.89,6.55-5.59,15.04-4.57,21.83,2.74,2.01,2.17,3.84,4.51,5.64,6.85,40.27,52.22,63.63,111.59,74.31,176.27,1.63,9.86,2.78,19.8,4.4,31.58,2.05-2.93,3.13-4.39,4.12-5.91,14.47-21.99,30.61-42.65,48.98-61.53,34.53-35.49,73.42-64.86,119.33-84.19,9.84-4.14,18.21-1.08,21.57,7.1,3.42,8.32-.37,15.8-10.26,20.29-78.54,35.7-134.84,94.28-175.22,169.52-3.62,6.74,.4,8.29,3.4,11.88,4.5,5.38,6.88,.23,9.45-1.74,47.96-36.78,98.98-68.63,153.34-95.06,75.01-36.47,153.65-61.44,236.33-73.01,59-8.25,110.62,36.97,110.95,96.49,.01,2.37-2.19,5.12,.73,7.23-2.49,10.24-4.98,20.48-7.47,30.72Zm-299.63,32.02c46.79-12.55,93.56-25.13,140.37-37.62,12.74-3.4,17.86-.57,22.52,11.92-.04,11.18-7.49,14.87-16.79,17.37-106.55,28.7-213.08,57.53-319.59,86.38-2.97,.8-6.47,.53-9.4,4.18,19.29,4.69,37.97,9.29,56.7,13.69,2.13,.5,4.57-.04,6.83-.37,103.94-15.04,207.87-30.15,311.83-45.07,4.97-.71,8.34-2.6,11.4-6.47,18.51-23.44,37.26-46.7,55.84-70.09,3.6-4.53,7.69-8.86,9.24-15.47-17.71,4.76-34.88,9.08-51.86,14.07-9.59,2.82-16.71,.66-21.89-7.85-1.2-13.07,1.56-17.38,13.94-20.8,19.65-5.43,39.26-11.02,59.07-15.8,7.24-1.74,8.62-4.74,7.25-11.63-6.89-34.72-39.67-58.19-76.28-53.37-17.57,2.31-34.85,6.75-52.42,9.12-21.1,2.84-38.28,11.36-51.94,28.18-9.08,11.18-20.19,20.69-30.32,31.03-21.84,22.29-43.63,44.62-65.44,66.94-.45,.53-.9,1.05-1.35,1.58,.76,.03,1.53,.07,2.29,.1ZM120.76,675.61c1.1,12.55-1.25,16.51-12.78,21.01-9.18,3.58-18.36,7.21-27.67,10.42-4.48,1.54-5.29,3.58-3.67,7.98,3.75,10.17,6.86,20.56,10.42,30.8,12.31,35.39,36.93,57.29,73.81,63.26,35.64,5.77,65.55-6.58,88.17-34.67,44.03-54.68,87.49-109.82,131.5-164.52,4.16-5.17,3.8-9.21,.86-13.96-3.72-6.02-7.68-.63-10.83,.56-63.93,24.15-127.8,48.49-191.56,73.08-9.61,3.71-17.21,2.99-23.26-5.8-2.3-13-.09-17.06,12.24-21.8,24.86-9.56,49.75-19.02,74.63-28.53,44.23-16.9,88.4-33.93,132.74-50.52,6.24-2.34,8.63-6.75,7.89-11.88-.85-5.91-6.63-2.3-9.73-2.24-70.25,1.35-140.48,3.12-210.73,4.57-4.98,.1-8.65,1.43-12.35,4.65-24.33,21.13-48.91,41.98-73.23,63.13-8.12,7.06-21,12.43-22.78,21.94-1.76,9.38,5.64,20.38,8.55,30.79,1.53,5.5,3.27,7.63,9.33,4.75,7.99-3.8,16.5-6.51,24.82-9.61,12.22-4.56,15.58-3.59,23.65,6.6Zm437.9,230.81c33.2,7.28,61.29,.77,85.57-20.28,9.17-7.95,17.25-17.15,26.36-25.18,4.93-4.35,4.59-6.9,.32-11.66-69.13-77.05-138.03-154.32-207.13-231.4-1.75-1.95-2.91-7.24-7.2-4.31-3.7,2.53-8.16,4.32-6.73,11.33,14.47,71.05,27.66,142.37,42.93,213.25,7.79,36.16,32.43,58.28,65.89,68.24ZM38.44,154.1c1.36,9.45,2.01,15.93,3.25,22.29,5.38,27.4,11.12,54.73,16.31,82.16,1.3,6.89,4.19,11.63,10.02,15.77,78.44,55.72,157.39,110.77,234.63,168.12,25.16,18.68,53.43,22.76,82.55,28.7-114.82-104.98-229.64-209.95-346.77-317.04Zm434.81,423.36c-2.35,4.86,1.23,7.67,4.08,10.86,66.15,74.02,132.27,148.08,198.43,222.1,7,7.83,13.85,21.23,21.39,21.68,8.71,.53,15.34-13.46,23.64-20.27,4.83-3.96,5.33-7.61,2.9-13.47-13.98-33.71-27.92-67.46-40.84-101.58-4.59-12.13-11.59-19.86-23.08-25.99-58.78-31.39-117.08-63.69-175.69-95.4-3.14-1.7-9.16-9.39-10.83,2.07Zm-212.95-260.69c1.66-2.49,.87-4,.39-5.54-15.74-50.2-31.49-100.39-47.21-150.6-.9-2.86-2.07-5.38-4.45-7.46-21.5-18.87-43.29-37.46-67.48-52.78-28.89-18.3-67.11-11.19-88.02,15.09-4.44,5.58-4.15,8.69,1.27,13.62,68.57,62.33,136.89,124.94,205.49,187.68Zm-47.98,205.77c-14.75-21.09-28.88-40.79-42.4-60.9-5.32-7.91-11-13.77-20.91-16.06-9.5-2.19-18.74-6.14-27.12-11.45-4.58-2.9-7.84-2.62-11.87,1.47-15.22,15.43-30.85,30.45-46.31,45.64-9.96,9.79-17.36,21.32-23.06,34.02-4.91,10.92-4.75,11.22,6.84,10.98,27.23-.55,54.46-1.06,81.69-1.67,27.16-.61,54.31-1.33,83.15-2.04Zm427.33,103.83c50.58,27.65,99.53,54.34,148.39,81.18,5.51,3.02,6.68,.46,7.1-4.3,1.22-13.51,.98-27.04-3-40.02-7.04-22.91-14.93-45.55-22.2-68.39-1.34-4.21-3.44-5.65-7.74-5.46-13.19,.59-26.22-.98-39.12-3.66-2.68-.56-5.09-.54-7.59,.78-24.67,13.01-49.37,25.96-75.84,39.86Zm-231.77-174.72c1.26-8.33,5.9-13.34,2.52-20.75-36.99-81.17-84.46-155.46-144.57-221.52-1.61-1.77-2.85-4.76-6.75-3.39,.86,3.08,1.64,6.17,2.6,9.21,11.7,37.33,24.46,74.37,34.77,112.08,6.14,22.46,16.95,39.98,34.89,54.94,25.93,21.62,50.15,45.3,76.54,69.42Zm336.17-128.81c-6.03-1.28-9.38,1.21-12.93,2.55-80.04,30.18-153.11,72.63-220.7,124.89-7.84,6.06-11.63,12.57-10.55,22.17,.74,.08,1.44,.36,2.02,.2,41.23-11.08,82.44-22.2,123.67-33.28,2.61-.7,4.86-1.79,6.78-3.73,36.94-37.32,73.9-74.62,111.72-112.8Zm-94.96,212.64c.03,.6,.07,1.2,.1,1.8,26.86,6.53,53.55,13.96,80.63,19.39,51.13,10.25,94.06-4.88,128.09-44.57,1.5-1.75,4.34-3.21,2.98-7.23-70.6,10.2-141.2,20.41-211.81,30.61ZM69.8,311.76c.26,3.69,.19,5.25,.49,6.73,8.35,40.87,30.59,71.85,67.81,90.62,33.48,16.88,71.3,19.46,107.64,28.42-58.03-41.48-116.07-82.96-175.95-125.76Zm135.05,148.16c14.58,20.9,27.7,39.68,40.79,58.48,1.61,2.32,3.51,3.62,6.53,3.55,44.66-1.16,89.31-2.37,133.97-3.2,6.47-.12,6.22-4.4,7.38-8.34,1.5-5.09-2.4-5.2-5.47-5.95-60.12-14.63-120.26-29.24-183.2-44.53Zm468.49,115.21c-1.4-1.14-1.81-1.73-2.34-1.86-59.83-14.59-119.67-29.13-179.51-43.7-3.32-.81-6.3-1.78-7.46,3.16-1.14,4.83-1.64,8.03,4.08,11.08,38.54,20.59,76.84,41.64,115.09,62.77,3.65,2.01,6.33,2.27,9.95,.33,19.73-10.56,39.57-20.92,60.19-31.77Zm76.18,208.19c12.99-11.86,23.91-23.33,32.05-37.46,3.32-5.77,1.67-7.56-3.28-10.16-16.81-8.84-33.42-18.06-50.09-27.18-3.08-1.68-5.95-3.89-10.2-3.02,10.37,25.6,20.66,51,31.51,77.82ZM105.07,556.57c-1.34-.67-2.21-1.5-3.06-1.48-21.98,.33-43.97,.81-65.95,1.1-4.87,.06-4.68,2.7-4.63,6.41,.18,14.68,4.26,28.45,8.64,42.27,2.07,6.51,4,5.73,8.29,1.93,13.03-11.56,26.47-22.66,39.56-34.17,5.8-5.1,12.55-9.3,17.16-16.06Z"/>
  <path class="cls-4" d="M155.73,663.76c6.05,8.79,13.65,9.51,23.26,5.8,63.77-24.59,127.63-48.93,191.56-73.08,3.15-1.19,7.1-6.58,10.83-.56,2.94,4.74,3.3,8.79-.86,13.96-44,54.7-87.47,109.84-131.5,164.52-22.62,28.09-52.53,40.44-88.17,34.67-36.88-5.97-61.49-27.87-73.81-63.26-3.56-10.24-6.67-20.63-10.42-30.8-1.62-4.4-.81-6.44,3.67-7.98,9.32-3.21,18.49-6.84,27.67-10.42,11.53-4.5,13.88-8.46,12.78-21.01,11.74-3.69,22.76-9.54,34.98-11.84Z"/>
  <path class="cls-4" d="M558.65,906.42c-33.46-9.96-58.1-32.09-65.89-68.24-15.28-70.87-28.46-142.2-42.93-213.25-1.43-7.01,3.04-8.8,6.73-11.33,4.29-2.94,5.45,2.35,7.2,4.31,69.1,77.08,138,154.35,207.13,231.4,4.27,4.76,4.61,7.31-.32,11.66-9.1,8.03-17.19,17.23-26.36,25.18-24.28,21.05-52.37,27.56-85.57,20.28Z"/>
  <path class="cls-4" d="M887.21,385.7c5.18,8.51,12.3,10.67,21.89,7.85,16.98-4.99,34.15-9.31,51.86-14.07-1.55,6.61-5.64,10.94-9.24,15.47-18.59,23.39-37.33,46.65-55.84,70.09-3.06,3.87-6.43,5.76-11.4,6.47-103.96,14.92-207.89,30.03-311.83,45.07-2.26,.33-4.7,.87-6.83,.37-18.73-4.39-37.41-9-56.7-13.69,2.93-3.65,6.43-3.37,9.4-4.18,106.52-28.85,213.04-57.67,319.59-86.38,9.31-2.51,16.76-6.2,16.8-17.37,10.15-5.3,21.43-6.79,32.3-9.65Z"/>
  <path class="cls-4" d="M38.44,154.1c117.13,107.08,231.95,212.06,346.77,317.04-29.12-5.94-57.39-10.02-82.55-28.7-77.24-57.35-156.19-112.4-234.63-168.12-5.83-4.14-8.71-8.89-10.02-15.77-5.19-27.43-10.93-54.76-16.31-82.16-1.25-6.36-1.9-12.84-3.25-22.29Z"/>
  <path class="cls-4" d="M155.73,663.76c-12.22,2.3-23.23,8.15-34.98,11.84-8.07-10.19-11.43-11.15-23.65-6.6-8.32,3.1-16.83,5.81-24.82,9.61-6.07,2.89-7.8,.75-9.33-4.75-2.91-10.42-10.31-21.41-8.55-30.79,1.78-9.51,14.66-14.89,22.78-21.94,24.32-21.15,48.9-41.99,73.23-63.13,3.71-3.22,7.37-4.54,12.35-4.65,70.24-1.45,140.48-3.22,210.73-4.57,3.1-.06,8.88-3.68,9.73,2.24,.74,5.13-1.64,9.54-7.89,11.88-44.34,16.59-88.52,33.63-132.74,50.52-24.88,9.5-49.77,18.97-74.63,28.53-12.33,4.74-14.54,8.8-12.24,21.8Z"/>
  <path class="cls-4" d="M473.25,577.46c1.67-11.45,7.69-3.77,10.83-2.07,58.61,31.71,116.91,64.01,175.69,95.4,11.48,6.13,18.48,13.87,23.08,25.99,12.93,34.12,26.87,67.87,40.84,101.58,2.43,5.86,1.93,9.51-2.9,13.47-8.3,6.81-14.94,20.8-23.64,20.27-7.55-.46-14.4-13.86-21.39-21.68-66.16-74.02-132.28-148.07-198.43-222.1-2.86-3.2-6.44-6-4.08-10.86Z"/>
  <path class="cls-3" d="M887.21,385.7c-10.87,2.87-22.16,4.35-32.3,9.65-4.66-12.5-9.78-15.32-22.52-11.92-46.8,12.49-93.58,25.07-140.37,37.62-.28-.58-.59-1.14-.94-1.68,21.81-22.31,43.6-44.65,65.44-66.94,10.13-10.33,21.24-19.85,30.32-31.03,13.66-16.81,30.84-25.34,51.94-28.18,17.56-2.37,34.85-6.8,52.42-9.12,36.6-4.82,69.39,18.65,76.28,53.37,1.37,6.89-.02,9.88-7.25,11.63-19.81,4.78-39.42,10.37-59.07,15.8-12.37,3.42-15.14,7.72-13.94,20.8Z"/>
  <path class="cls-3" d="M260.3,316.77c-68.6-62.74-136.92-125.35-205.49-187.68-5.42-4.93-5.71-8.04-1.27-13.62,20.91-26.28,59.12-33.39,88.02-15.09,24.2,15.32,45.98,33.91,67.48,52.78,2.37,2.08,3.55,4.6,4.45,7.46,15.72,50.2,31.46,100.4,47.21,150.6,.48,1.54,1.27,3.06-.39,5.54Z"/>
  <path class="cls-3" d="M212.32,522.54c-28.83,.71-55.99,1.43-83.15,2.04-27.23,.61-54.46,1.11-81.69,1.67-11.59,.24-11.74-.06-6.84-10.98,5.7-12.69,13.1-24.23,23.06-34.02,15.46-15.19,31.09-30.22,46.31-45.64,4.03-4.08,7.29-4.36,11.87-1.47,8.38,5.31,17.62,9.26,27.12,11.45,9.92,2.29,15.59,8.15,20.91,16.06,13.52,20.11,27.66,39.81,42.4,60.9Z"/>
  <path class="cls-3" d="M639.65,626.37c26.47-13.9,51.17-26.85,75.84-39.86,2.5-1.32,4.92-1.34,7.59-.78,12.9,2.68,25.93,4.25,39.12,3.66,4.3-.19,6.39,1.25,7.74,5.46,7.28,22.84,15.17,45.48,22.2,68.39,3.98,12.98,4.22,26.51,3,40.02-.43,4.76-1.6,7.32-7.1,4.3-48.86-26.83-97.8-53.53-148.39-81.18Z"/>
  <path class="cls-3" d="M407.87,451.65c-26.39-24.12-50.6-47.8-76.54-69.42-17.94-14.96-28.75-32.47-34.89-54.94-10.31-37.71-23.07-74.75-34.77-112.08-.95-3.04-1.73-6.13-2.6-9.21,3.9-1.37,5.14,1.62,6.75,3.39,60.11,66.06,107.58,140.35,144.57,221.52,3.38,7.41-1.26,12.41-2.52,20.75Z"/>
  <path class="cls-3" d="M744.04,322.84c-37.82,38.18-74.78,75.48-111.72,112.8-1.92,1.94-4.17,3.03-6.78,3.73-41.23,11.08-82.44,22.2-123.67,33.28-.58,.16-1.28-.12-2.02-.2-1.08-9.6,2.71-16.11,10.55-22.17,67.59-52.26,140.66-94.71,220.7-124.89,3.55-1.34,6.9-3.82,12.93-2.55Z"/>
  <path class="cls-4" d="M649.08,535.48c70.6-10.2,141.2-20.41,211.81-30.61,1.36,4.02-1.48,5.48-2.98,7.23-34.03,39.69-76.95,54.82-128.09,44.57-27.08-5.43-53.77-12.86-80.63-19.39-.03-.6-.07-1.2-.1-1.8Z"/>
  <path class="cls-4" d="M69.8,311.76c59.88,42.8,117.91,84.28,175.95,125.76-36.35-8.96-74.16-11.54-107.64-28.42-37.22-18.77-59.46-49.75-67.81-90.62-.3-1.48-.24-3.03-.49-6.73Z"/>
  <path class="cls-3" d="M204.85,459.92c62.94,15.3,123.07,29.9,183.2,44.53,3.08,.75,6.97,.86,5.47,5.95-1.16,3.94-.91,8.22-7.38,8.34-44.66,.83-89.32,2.04-133.97,3.2-3.02,.08-4.91-1.23-6.53-3.55-13.08-18.8-26.2-37.58-40.79-58.48Z"/>
  <path class="cls-3" d="M673.34,575.13c-20.61,10.85-40.46,21.21-60.19,31.77-3.62,1.94-6.3,1.69-9.95-.33-38.25-21.13-76.55-42.18-115.09-62.77-5.72-3.06-5.22-6.26-4.08-11.08,1.16-4.94,4.14-3.97,7.46-3.16,59.84,14.57,119.68,29.12,179.51,43.7,.52,.13,.93,.72,2.34,1.86Z"/>
  <path class="cls-4" d="M749.52,783.32c-10.86-26.81-21.15-52.22-31.51-77.82,4.25-.87,7.12,1.33,10.2,3.02,16.67,9.12,33.28,18.34,50.09,27.18,4.96,2.6,6.61,4.4,3.28,10.16-8.14,14.13-19.06,25.6-32.05,37.46Z"/>
  <path class="cls-4" d="M105.07,556.57c-4.61,6.77-11.36,10.96-17.16,16.06-13.08,11.51-26.52,22.61-39.56,34.17-4.29,3.8-6.22,4.59-8.29-1.93-4.39-13.82-8.46-27.59-8.64-42.27-.05-3.72-.24-6.35,4.63-6.41,21.98-.29,43.97-.77,65.95-1.1,.85-.01,1.72,.81,3.06,1.48Z"/>
  <path class="cls-1" d="M692.02,421.05c-.76-.03-1.53-.07-2.29-.1,.45-.53,.9-1.05,1.35-1.58,.35,.54,.66,1.1,.94,1.68Z"/>
</svg>