<?xml version="1.0" encoding="UTF-8"?>
<svg id="Layer_1" data-name="Layer 1" xmlns="http://www.w3.org/2000/svg" xmlns:xlink="http://www.w3.org/1999/xlink" viewBox="0 0 1800 300">
  <defs>
    <style>
      .cls-1 {
        clip-path: url(#clippath-1);
      }

      .cls-2 {
        opacity: .14;
      }

      .cls-2, .cls-3 {
        fill: #ccc;
      }

      .cls-3 {
        opacity: .54;
      }

      .cls-4 {
        fill: #ef8e6b;
      }

      .cls-5 {
        clip-path: url(#clippath);
      }

      .cls-6 {
        fill: none;
      }

      .cls-7 {
        fill: #f2db4c;
      }
    </style>
    <clipPath id="clippath">
      <rect class="cls-6" x="2009" y="-638.5" width="1210" height="400"/>
    </clipPath>
    <clipPath id="clippath-1">
      <rect class="cls-6" y=".5" width="1800" height="300"/>
    </clipPath>
  </defs>
  <g class="cls-5">
    <path class="cls-2" d="M2227.44,12.44l-456.64-302.12,464.05-701.38,456.64,302.12s-254.1,207.01-313.48,296.75c-56.64,85.61-150.57,404.63-150.57,404.63Z"/>
    <path class="cls-3" d="M1678,385.5l419.2-71.53s.66,83.27,35.16-20.91c32.55-98.28,1087.63-481.2,1087.63-481.2l-1273.81-236.21s62.95,355.15,28.64,458.77c-32.73,98.84-296.82,351.08-296.82,351.08Z"/>
  </g>
  <g class="cls-1">
    <path class="cls-3" d="M163.79,432.14L-504.62,209.92,185.7-314.36,854.12-92.14S478.05,63.24,389.73,130.32c-84.26,63.99-225.94,301.82-225.94,301.82Z"/>
    <path class="cls-2" d="M314.53,487.08L-471.93,225.61,218.39-298.67,1004.86-37.2s-397.13,148.38-485.45,215.46c-84.26,63.99-204.87,308.82-204.87,308.82Z"/>
    <path class="cls-7" d="M2822.99,187.85l-405.67,18.44s-1.91,41.21-86.28-27.66C2251.44,113.66,534.01,5.21,534.01,5.21l1633.13-352.7s43.97,261.02,127.88,329.51c80.05,65.34,527.97,205.83,527.97,205.83Z"/>
    <path class="cls-4" d="M2514.67,508.14l-405.67,18.44s-1.91,41.21-86.28-27.66c-79.59-64.97-1797.02-173.42-1797.02-173.42L1858.82-27.2s43.97,261.02,127.88,329.51c80.05,65.34,527.97,205.83,527.97,205.83Z"/>
  </g>
</svg>